<svg width="639" height="163" viewBox="0 0 639 163" fill="none" xmlns="http://www.w3.org/2000/svg">
<path fill-rule="evenodd" clip-rule="evenodd" d="M438 163H426V0H438L438 163ZM540 163H528V6.10352e-05L540 5.95415e-05V163ZM465 85C453.954 85 445 93.9543 445 105V163H457V124C457 115.716 463.716 109 472 109H494C502.284 109 509 115.716 509 124V163H521V105C521 93.9543 512.046 85 501 85H465ZM521 58C521 69.0457 512.046 78 501 78H465C453.954 78 445 69.0457 445 58V0H457V39C457 47.2843 463.716 54 472 54H494C502.284 54 509 47.2843 509 39V0H521V58ZM639 163V137L547 137V163L639 163ZM639 0.000100883V26.0001L547 26.0001V0.000118077L639 0.000100883ZM590 53C590 41.9543 581.046 33 570 33H547V48.3158H558.025C569.071 48.3158 578.025 57.2701 578.025 68.3158V94.6842C578.025 105.73 569.071 114.684 558.025 114.684H547V130H570C581.046 130 590 121.046 590 110V53ZM616 130C604.954 130 596 121.046 596 110V53C596 41.9543 604.954 33 616 33H639V48.3158H627.975C616.929 48.3158 607.975 57.2701 607.975 68.3158V94.6842C607.975 105.73 616.929 114.684 627.975 114.684H639V130H616ZM0 37.5385V162.607H13.3532V47.3549C13.3532 39.7199 21.6539 25.5407 38.977 25.5407C56.3001 25.5407 63.1572 42.2649 63.1572 47.3549V113.161C63.1572 123.566 75.153 128.084 80.1194 128.716V128.795C80.2832 128.795 80.4642 128.787 80.6607 128.772C80.8572 128.787 81.0383 128.795 81.2021 128.795V128.716C86.1685 128.084 98.1643 123.566 98.1643 113.161V47.3549C98.1643 42.2649 105.021 25.5407 122.344 25.5407C139.668 25.5407 147.968 39.7199 147.968 47.3549V162.607H161.321V37.5385C161.321 18.2692 145.731 0.500008 122.344 0.500008C97.0816 0.500008 84.0893 22.9957 84.0893 37.5385V98.6184C83.9768 99.7511 83.1287 101.943 80.6607 102.224C78.1928 101.943 77.3446 99.7511 77.2322 98.6184V37.5385C77.2322 22.9957 64.2399 0.5 38.977 0.5C15.5908 0.5 0 18.2692 0 37.5385ZM20.2102 65.5335V162.607H33.5634V65.5335C33.5634 61.5342 35.3679 60.0799 37.8942 60.0799C40.4205 60.0799 42.225 61.1706 42.225 65.5335V126.613C42.225 149.882 63.8789 162.607 80.8411 162.607C97.8033 162.607 119.096 149.882 119.096 126.613V65.5335C119.096 61.1706 120.901 60.0799 123.427 60.0799C125.953 60.0799 127.758 61.5342 127.758 65.5335V162.607H141.111V65.5335C141.111 46.2642 140.028 33.9028 123.427 33.9028C106.826 33.9028 106.104 45.9007 106.104 64.0792V114.252C106.104 125.159 94.5552 136.793 80.8411 136.793C67.127 136.793 55.2173 125.159 55.2173 114.252V64.0792C55.2173 45.9007 54.4955 33.9028 37.8942 33.9028C21.2929 33.9028 20.2102 46.2642 20.2102 65.5335ZM208 0C185.909 0 168 17.9086 168 40V123C168 145.091 185.909 163 208 163H250C272.091 163 290 145.091 290 123V40C290 17.9086 272.091 0 250 0H208ZM207 27C193.193 27 182 38.1929 182 52V113C182 126.807 193.193 138 207 138H251C264.807 138 276 126.807 276 113V52C276 38.1929 264.807 27 251 27H207ZM189 54C189 42.9543 197.954 34 209 34H249C260.046 34 269 42.9543 269 54V110C269 121.046 260.046 130 249 130H209C197.954 130 189 121.046 189 110V54ZM201 66C201 57.7157 207.716 51 216 51H242C250.284 51 257 57.7157 257 66V98C257 106.284 250.284 113 242 113H216C207.716 113 201 106.284 201 98V66ZM297 40C297 17.9086 314.909 0 337 0H379C401.091 0 419 17.9086 419 40V65H402V56C402 39.4315 388.569 26 372 26H344C327.431 26 314 39.4315 314 56V109C314 125.569 327.431 139 344 139H372C388.569 139 402 125.569 402 109V98H419V123C419 145.091 401.091 163 379 163H337C314.909 163 297 145.091 297 123V40ZM341 33C329.954 33 321 41.9543 321 53V111C321 122.046 329.954 131 341 131H375C386.046 131 395 122.046 395 111V98.6808H381V103.489C381 111.774 374.284 118.489 366 118.489H350C341.716 118.489 335 111.774 335 103.489V60.5106C335 52.2264 341.716 45.5106 350 45.5106H366C374.284 45.5106 381 52.2264 381 60.5106V64.2766H395V53C395 41.9543 386.046 33 375 33H341Z" fill="url(#paint0_linear_43_95)"/>
<defs>
<linearGradient id="paint0_linear_43_95" x1="0" y1="81.5001" x2="639" y2="81.5001" gradientUnits="userSpaceOnUse">
<stop stop-color="#52493C"/>
<stop offset="0.25" stop-color="#987A54"/>
<stop offset="0.5" stop-color="#E29E64"/>
<stop offset="0.75" stop-color="#F9BA80"/>
<stop offset="1" stop-color="#5E6040"/>
</linearGradient>
</defs>
</svg>
