<svg width="1181" height="226" viewBox="0 0 1181 226" fill="none" xmlns="http://www.w3.org/2000/svg">
	<path d="M0 53V225H18.5V66.5C18.5 56 30 36.5 54 36.5C78 36.5 87.5 59.5 87.5 66.5V157C87.5 172.5 107 178.5 112.5 178.5V142C108.5 142 107.167 138.667 107 137V53C107 33 89 0 54 0C21.6 0 0 26.5 0 53Z" fill="black"/>
	<path d="M223.5 53V225H205V66.5C205 56 193.5 36.5 169.5 36.5C145.5 36.5 136 59.5 136 66.5V157C136 172.5 116.5 178.5 111 178.5V142C115 142 116.333 138.667 116.5 137V53C116.5 33 134.5 0 169.5 0C201.9 0 223.5 26.5 223.5 53Z" fill="black"/>
	<path d="M28 91.5V225H46.5V91.5C46.5 86 49 84 52.5 84C56 84 58.5 85.5 58.5 91.5V175.5C58.5 207.5 88.5 226 112 226V189.5C93 189.5 76.5 173.5 76.5 158.5V89.5C76.5 64.5 75.5 48 52.5 48C29.5 48 28 65 28 91.5Z" fill="black"/>
	<path d="M195.5 91.5V225H177V91.5C177 86 174.5 84 171 84C167.5 84 165 85.5 165 91.5V175.5C165 207.5 135.5 226 112 226V189.5C131 189.5 147 173.5 147 158.5V89.5C147 64.5 148 48 171 48C194 48 195.5 65 195.5 91.5Z" fill="black"/>
	<path fill-rule="evenodd" clip-rule="evenodd" d="M388.5 225C450.632 225 501 174.632 501 112.5C501 50.368 450.632 0 388.5 0C326.368 0 276 50.368 276 112.5C276 174.632 326.368 225 388.5 225ZM389 202C438.153 202 478 162.153 478 113C478 63.8467 438.153 24 389 24C339.847 24 300 63.8467 300 113C300 162.153 339.847 202 389 202ZM468 113C468 156.63 432.63 192 389 192C345.37 192 310 156.63 310 113C310 69.3695 345.37 34 389 34C432.63 34 468 69.3695 468 113ZM389 161C415.51 161 437 139.51 437 113C437 86.4903 415.51 65 389 65C362.49 65 341 86.4903 341 113C341 139.51 362.49 161 389 161Z" fill="black"/>
	<path d="M721 67.0726L706.548 78.9653C700.978 72.409 686.677 60.6688 666.355 60.6688C639.71 60.6688 614.419 82.1672 614.419 115.101C614.419 148.035 646.032 166.789 666.355 166.789C685.323 166.789 700.677 155.811 706.097 148.035C710.161 151.694 717.387 157.64 721 160.385L720.932 160.461C716.733 165.188 698.244 186 666.355 186C634.29 186 595 160.842 595 115.101C595 64.7855 636.097 41 666.355 41C690.989 41 713.323 56.5521 721 67.0726Z" fill="black"/>
	<path d="M751 41.2776L728.405 59.6498C719.697 49.5216 697.337 31.3849 665.563 31.3849C623.903 31.3849 584.362 64.5962 584.362 115.473C584.362 166.35 633.789 195.322 665.563 195.322C695.219 195.322 719.226 178.363 727.699 166.35C734.054 172.003 745.351 181.189 751 185.429L750.894 185.547C744.328 192.85 715.421 225 665.563 225C615.43 225 554 186.136 554 115.473C554 37.7445 618.254 1 665.563 1C704.078 0.999997 738.996 25.0252 751 41.2776Z" fill="black"/>
	<path fill-rule="evenodd" clip-rule="evenodd" d="M1002 225L1027 225L1027 1L1002 1L1002 225ZM845 225L820 225L820 1.00002L845 1.00002L845 225Z" fill="black"/>
	<path d="M984 100.5C993.6 88.5001 991.501 32.5001 991.5 1.00005L971.5 1.00005C971.5 29.0001 977.5 70 963.5 84C949.5 98 923 95.5 923 95.5L923 117C923 117 968.001 120.5 984 100.5Z" fill="black"/>
	<path d="M862 100.5C852.401 88.5001 854.5 32.5001 854.5 1.00005L874.5 1.00004C874.5 29.0001 868.5 70 882.5 84C896.5 98 923 95.5 923 95.5L923 117C923 117 878 120.5 862 100.5Z" fill="black"/>
	<path d="M991 112.304L991 225L971.985 225C971.985 192.474 973.5 165.161 964.379 155.37C955.258 145.58 923 145.723 923 145.723L923 127.686C966.056 127.686 983.22 116.46 988.762 111.41C989.494 110.744 991 111.315 991 112.304Z" fill="black"/>
	<path d="M855 112.304L855 225L874.015 225C874.015 192.474 872.5 165.161 881.621 155.37C890.742 145.58 923 145.723 923 145.723L923 127.686C879.944 127.686 862.78 116.46 857.238 111.41C856.506 110.744 855 111.315 855 112.304Z" fill="black"/>
	<path fill-rule="evenodd" clip-rule="evenodd" d="M1155.5 225L1180.5 225L1180.5 1L1155.5 1L1155.5 225ZM1145.5 225L1120.5 225L1120.5 1.00001L1145.5 1L1145.5 225Z" fill="black"/>
</svg>
