<svg width="1181" height="226" viewBox="0 0 1181 226" fill="none" xmlns="http://www.w3.org/2000/svg">

	<path fill-rule="evenodd" clip-rule="evenodd" fill="url(#paint0_linear_14_28)" d="M0 53V225H18.5V66.5C18.5 56 30 36.5 54 36.5C78 36.5 87.5 59.5 87.5 66.5V157C87.5 171.309 104.119 177.522 111 178.392V178.5C111.227 178.5 111.478 178.49 111.75 178.469C111.829 178.475 111.906 178.48 111.981 178.484C112.055 178.489 112.127 178.492 112.198 178.494C112.303 178.498 112.404 178.5 112.5 178.5V178.392C119.381 177.522 136 171.309 136 157V66.5C136 59.5 145.5 36.5 169.5 36.5C193.5 36.5 205 56 205 66.5V225H223.5V53C223.5 26.5 201.9 0 169.5 0C134.5 0 116.5 33 116.5 53V137C116.344 138.558 115.169 141.572 111.75 141.959C108.331 141.572 107.156 138.558 107 137V53C107 33 89 0 54 0C21.6001 0 0 26.5 0 53ZM28 225V91.5C28 65 29.5 48 52.5 48C75.5 48 76.5 64.5 76.5 89.5V158.5C76.5 173.5 93 189.5 112 189.5C131 189.5 147 173.5 147 158.5V89.5C147 64.5 148 48 171 48C194 48 195.5 65 195.5 91.5V225H177V91.5C177 86 174.5 84 171 84C167.5 84 165 85.5 165 91.5V175.5C165 207.5 135.5 226 112 226C88.5 226 58.5 207.5 58.5 175.5V91.5C58.5 85.5 56 84 52.5 84C49 84 46.5 86 46.5 91.5V225H28ZM501 112.5C501 174.632 450.632 225 388.5 225C326.368 225 276 174.632 276 112.5C276 50.368 326.368 0 388.5 0C450.632 0 501 50.368 501 112.5ZM478 113C478 162.153 438.153 202 389 202C339.847 202 300 162.153 300 113C300 63.8466 339.847 24 389 24C438.153 24 478 63.8466 478 113ZM389 192C432.63 192 468 156.63 468 113C468 69.3695 432.63 34 389 34C345.37 34 310 69.3695 310 113C310 156.63 345.37 192 389 192ZM437 113C437 139.51 415.51 161 389 161C362.49 161 341 139.51 341 113C341 86.4903 362.49 65 389 65C415.51 65 437 86.4903 437 113ZM721 67.0725L706.548 78.9653C700.979 72.4091 686.677 60.6688 666.355 60.6688C639.71 60.6688 614.419 82.1672 614.419 115.101C614.419 148.035 646.032 166.789 666.355 166.789C685.323 166.789 700.677 155.811 706.097 148.035C710.161 151.694 717.387 157.64 721 160.385L720.932 160.461C716.733 165.188 698.244 186 666.355 186C634.29 186 595 160.842 595 115.101C595 64.7855 636.097 41 666.355 41C690.989 41 713.323 56.5521 721 67.0725ZM728.405 59.6498L751 41.2776C738.996 25.0252 704.078 1 665.563 1C618.254 1 554 37.7445 554 115.473C554 186.136 615.43 225 665.563 225C715.421 225 744.328 192.85 750.894 185.547L751 185.429C745.351 181.189 734.054 172.003 727.699 166.35C719.226 178.363 695.219 195.322 665.563 195.322C633.789 195.322 584.362 166.35 584.362 115.473C584.362 64.5962 623.903 31.3849 665.563 31.3849C697.337 31.3849 719.697 49.5215 728.405 59.6498ZM1002 225H1027V1H1002V225ZM845 225H820V1.00003H845V225ZM991.589 15.8136C991.862 47.614 992.227 90.2158 984 100.5C968.001 120.5 923 117 923 117C923 117 878 120.5 862 100.5C853.773 90.2158 854.139 47.614 854.412 15.8136L854.412 15.7595C854.458 10.4744 854.5 5.48849 854.5 1.00003H874.5C874.5 7.27246 874.199 14.1972 873.889 21.3247C872.816 46.0143 871.636 73.1362 882.5 84C896.5 98 923 95.5 923 95.5C923 95.5 949.5 98 963.5 84C974.364 73.1362 973.185 46.0143 972.111 21.3247C971.801 14.1972 971.5 7.27246 971.5 1.00006H991.5C991.5 5.50381 991.543 10.5084 991.589 15.8136ZM991 225V112.304C991 111.315 989.494 110.744 988.762 111.41C983.22 116.46 966.056 127.686 923 127.686C879.944 127.686 862.78 116.46 857.238 111.41C856.506 110.744 855 111.315 855 112.304V225H874.015C874.015 220.842 873.99 216.77 873.966 212.808V212.783C873.802 185.764 873.668 163.906 881.621 155.37C890.742 145.58 923 145.723 923 145.723C923 145.723 955.258 145.58 964.379 155.37C972.332 163.906 972.198 185.764 972.034 212.783V212.808V212.834C972.01 216.788 971.985 220.852 971.985 225H991ZM1180.5 225H1155.5V1H1180.5V225ZM1120.5 225H1145.5V1H1120.5V225Z" />
	<defs>
		<linearGradient id="paint0_linear_14_28" x1="0" y1="113" x2="1180.5" y2="113" gradientUnits="userSpaceOnUse">
			<stop stop-color="#52493C"/>
			<stop offset="0.25" stop-color="#987A54"/>
			<stop offset="0.5" stop-color="#E29E64"/>
			<stop offset="0.75" stop-color="#F9BA80"/>
			<stop offset="1" stop-color="#5E6040"/>
		</linearGradient>
	</defs>
</svg>
